<svg xmlns="http://www.w3.org/2000/svg" viewBox="0 0 100 100">
  <defs>
    <linearGradient id="leafGrad" x1="0%" y1="0%" x2="100%" y2="100%">
      <stop offset="0%" stop-color="#2d7a35"/>
      <stop offset="100%" stop-color="#56a25d"/>
    </linearGradient>
  </defs>
  <path d="M50 10 C30 10 15 30 15 50 C15 70 30 90 50 90 C70 90 85 70 85 50 C85 30 70 10 50 10Z" fill="url(#leafGrad)" opacity="0.1"/>
  <path d="M50 20 Q35 35 30 55 Q40 45 50 40 Q60 45 70 55 Q65 35 50 20Z" fill="url(#leafGrad)"/>
  <path d="M50 40 Q42 50 38 65 Q44 55 50 50 Q56 55 62 65 Q58 50 50 40Z" fill="#1e6326" opacity="0.3"/>
</svg>
